<?xml version="1.0" encoding="UTF-8"?>
<svg version="1.1" xmlns="http://www.w3.org/2000/svg" width="399" height="331">
<path d="M0 0 C11.92301982 7.22330188 21.27809756 16.78100834 25.0847168 30.47827148 C27.08466774 39.08868383 27.41453268 47.92396539 27.609375 56.73046875 C27.6285498 57.55735199 27.64772461 58.38423523 27.66748047 59.23617554 C27.78557877 68.56378401 27.83733002 76.28404865 21.17749023 83.48754883 C18.10629465 86.18007976 15.04701866 88.43038204 11.546875 90.54296875 C12.22492188 90.93226563 12.90296875 91.3215625 13.6015625 91.72265625 C28.00737937 100.3821085 36.88559046 111.03175862 41.78515625 127.07421875 C44.13861668 137.7915155 43.83130402 148.90545338 43.89697266 159.8215332 C43.91364864 161.85322429 43.94108822 163.88485405 43.97900391 165.91625977 C44.03368327 168.87156024 44.0556154 171.82551256 44.0703125 174.78125 C44.09298187 175.68651932 44.11565125 176.59178864 44.13900757 177.52449036 C44.12416753 181.9413433 44.05484117 183.8941116 41.25830078 187.46630859 C39.91614502 188.49425537 39.91614502 188.49425537 38.546875 189.54296875 C37.89396484 190.07059814 37.24105469 190.59822754 36.56835938 191.1418457 C35.93220703 191.60034912 35.29605469 192.05885254 34.640625 192.53125 C33.90690674 193.06492188 33.17318848 193.59859375 32.41723633 194.1484375 C31.63501709 194.71175781 30.85279785 195.27507812 30.046875 195.85546875 C20.28076715 202.96575459 10.66721013 210.26449174 1.08129883 217.61523438 C0.24493896 218.25138672 -0.5914209 218.88753906 -1.453125 219.54296875 C-1.98142064 220.03031557 -2.50971628 220.51766239 -3.05402088 221.0197773 C-8.78085892 225.96963724 -13.33874532 226.37933117 -20.734375 226.22412109 C-22.38935753 226.22543533 -22.38935753 226.22543533 -24.07777405 226.22677612 C-27.70362574 226.22261527 -31.3275988 226.1760299 -34.953125 226.12890625 C-37.47516876 226.11770888 -39.99722561 226.10917125 -42.51928711 226.10317993 C-48.4656626 226.08265744 -54.41144115 226.03543134 -60.35751057 225.97508299 C-67.13135397 225.90783718 -73.90523059 225.87498381 -80.6793251 225.84491038 C-94.60429382 225.78232593 -108.52867273 225.67690461 -122.453125 225.54296875 C-121.48385184 218.11547852 -121.48385184 218.11547852 -120.23803711 214.53540039 C-119.99786362 213.83520279 -119.75769012 213.13500519 -119.51023865 212.41358948 C-119.25291458 211.6841362 -118.99559052 210.95468292 -118.73046875 210.203125 C-118.46553116 209.43616806 -118.20059357 208.66921112 -117.92762756 207.87901306 C-117.08786824 205.45240032 -116.2394057 203.02893882 -115.390625 200.60546875 C-114.81647741 198.95137304 -114.24290387 197.29707796 -113.66992188 195.64257812 C-112.27095052 191.60703915 -110.8641706 187.57430096 -109.453125 183.54296875 C-107.143125 183.54296875 -104.833125 183.54296875 -102.453125 183.54296875 C-102.453125 165.39296875 -102.453125 147.24296875 -102.453125 128.54296875 C-109.053125 128.54296875 -115.653125 128.54296875 -122.453125 128.54296875 C-121.328125 119.54296875 -121.328125 119.54296875 -120.23803711 116.51367188 C-119.99786362 115.83357056 -119.75769012 115.15346924 -119.51023865 114.45275879 C-119.25291458 113.75034058 -118.99559052 113.04792236 -118.73046875 112.32421875 C-118.33306236 111.20919983 -118.33306236 111.20919983 -117.92762756 110.07165527 C-117.08961513 107.72593085 -116.24034882 105.38447282 -115.390625 103.04296875 C-114.81630461 101.44167601 -114.24272975 99.84011567 -113.66992188 98.23828125 C-112.27291692 94.33669919 -110.86581249 90.43889844 -109.453125 86.54296875 C-107.143125 86.54296875 -104.833125 86.54296875 -102.453125 86.54296875 C-102.5159668 85.34808838 -102.57880859 84.15320801 -102.64355469 82.92211914 C-102.86202497 78.45594692 -102.99893992 73.99023628 -103.11230469 69.52026367 C-103.17237472 67.59237081 -103.25406839 65.66501849 -103.35839844 63.73901367 C-104.20002171 47.79355311 -104.20002171 47.79355311 -100.08227539 42.48852539 C-96.9871029 40.17105188 -93.86308832 38.35840899 -90.453125 36.54296875 C-88.72739055 35.28293139 -87.02611319 33.98846646 -85.35546875 32.65625 C-65.66771754 17.58400674 -65.66771754 17.58400674 -57.11132812 11.44213867 C-53.59955586 8.91796067 -50.22709023 6.41000606 -47.0703125 3.44921875 C-34.9461983 -7.46991075 -14.30606856 -6.90171145 0 0 Z M-60.453125 38.54296875 C-60.453125 58.01296875 -60.453125 77.48296875 -60.453125 97.54296875 C-55.73661496 93.61360666 -55.73661496 93.61360666 -51.50488281 89.20605469 C-48.45839756 86.73667611 -45.38201027 86.93997771 -41.625 86.93359375 C-40.87599426 86.9170575 -40.12698853 86.90052124 -39.35528564 86.88348389 C-36.97114846 86.83503365 -34.58764889 86.81364103 -32.203125 86.79296875 C-30.58330131 86.76480635 -28.96350728 86.73487853 -27.34375 86.703125 C-23.38026086 86.62927631 -19.41712502 86.57968418 -15.453125 86.54296875 C-15.40362061 80.65308859 -15.3673558 74.76333005 -15.34326172 68.87329102 C-15.33321537 66.87033986 -15.31957591 64.86740333 -15.30224609 62.86450195 C-15.27793787 59.98254787 -15.26662813 57.10078803 -15.2578125 54.21875 C-15.24748993 53.3258577 -15.23716736 52.43296539 -15.22653198 51.51301575 C-15.22574417 47.12970736 -15.2257269 43.46168427 -17.453125 39.54296875 C-20.88998221 37.82454015 -24.83672631 38.42320963 -28.6171875 38.4453125 C-29.42115967 38.44631958 -30.22513184 38.44732666 -31.0534668 38.44836426 C-34.06170067 38.45360311 -37.06991424 38.46756435 -40.078125 38.48046875 C-46.801875 38.50109375 -53.525625 38.52171875 -60.453125 38.54296875 Z M-60.453125 128.54296875 C-60.42001221 130.46375244 -60.42001221 130.46375244 -60.38623047 132.42333984 C-60.31704981 137.21351751 -60.31443907 142.00189589 -60.33105469 146.79248047 C-60.32911826 148.8583302 -60.3095702 150.92424656 -60.27148438 152.98974609 C-59.95577711 171.15168323 -59.95577711 171.15168323 -63.75488281 176.15332031 C-66.20151339 178.57578664 -68.63044757 180.58525363 -71.453125 182.54296875 C-71.453125 182.87296875 -71.453125 183.20296875 -71.453125 183.54296875 C-47.693125 183.54296875 -23.933125 183.54296875 0.546875 183.54296875 C0.65 175.91171875 0.753125 168.28046875 0.859375 160.41796875 C0.92765503 156.81930908 0.92765503 156.81930908 0.99731445 153.14794922 C1.01192458 151.23536577 1.024664 149.32276672 1.03515625 147.41015625 C1.06073608 146.4260376 1.08631592 145.44191895 1.1126709 144.42797852 C1.11551301 139.94313299 1.11469667 136.6034894 -1.73364258 132.98876953 C-5.73386176 129.39112201 -8.3047104 128.28982111 -13.68066406 128.31591797 C-14.72144104 128.31606903 -15.76221802 128.31622009 -16.83453369 128.31637573 C-17.95132507 128.3266983 -19.06811646 128.33702087 -20.21875 128.34765625 C-21.36728455 128.35048615 -22.51581909 128.35331604 -23.69915771 128.35623169 C-27.36725281 128.36742612 -31.0351037 128.39252971 -34.703125 128.41796875 C-37.19010064 128.42799949 -39.67708011 128.43712517 -42.1640625 128.4453125 C-48.26049998 128.46736307 -54.35679504 128.5008335 -60.453125 128.54296875 Z " fill="#517150" transform="translate(327.453125,44.45703125)"/>
<path d="M0 0 C1.07121094 0.01740234 1.07121094 0.01740234 2.1640625 0.03515625 C19.79526357 0.57230754 36.14811389 8.98885069 48.5 21.375 C61.60007676 35.55487207 69.63578478 52.69353148 69.62025452 72.21507263 C69.62153615 73.191846 69.62153615 73.191846 69.62284368 74.18835217 C69.62447863 76.35012493 69.61900995 78.51181848 69.61352539 80.67358398 C69.61324306 82.23124693 69.61340214 83.78891001 69.6139679 85.34657288 C69.61425409 89.56091173 69.60838607 93.77522195 69.60139394 97.98955417 C69.59513083 102.39912695 69.59455426 106.80870043 69.59336853 111.21827698 C69.59026393 119.56205206 69.58206229 127.905814 69.57201904 136.2495833 C69.56083085 145.75137683 69.55534063 155.253171 69.55032361 164.75496948 C69.53987894 184.2949871 69.52229638 203.83499249 69.5 223.375 C64.00265079 225.23214582 58.50336742 227.08340233 53.00219727 228.92919922 C51.13055789 229.55811161 49.2594599 230.18863756 47.38891602 230.82080078 C44.70208765 231.72852269 42.01337371 232.63044777 39.32421875 233.53125 C38.48662521 233.81560913 37.64903168 234.09996826 36.78605652 234.39294434 C36.00547379 234.65321411 35.22489105 234.91348389 34.4206543 235.18164062 C33.73448532 235.41258423 33.04831635 235.64352783 32.34135437 235.88146973 C30.5 236.375 30.5 236.375 27.5 236.375 C27.17 198.755 26.84 161.135 26.5 122.375 C23.2 125.675 19.9 128.975 16.5 132.375 C12.18359313 133.27417086 9.48331042 133.5757372 5.2421875 133.3515625 C4.21312286 133.33741302 3.18405823 133.32326355 2.12380981 133.3086853 C-1.1288896 133.25317321 -4.37442268 133.12784253 -7.625 133 C-9.84364973 132.94978231 -12.06240864 132.90416497 -14.28125 132.86328125 C-19.68990099 132.75366072 -25.09443871 132.58684904 -30.5 132.375 C-30.49555878 133.11256531 -30.49111755 133.85013062 -30.48654175 134.61004639 C-30.44622179 141.61118035 -30.41589324 148.6122731 -30.39637566 155.61349106 C-30.38600369 159.21161665 -30.37196729 162.80964512 -30.34912109 166.40771484 C-30.32715464 169.88960962 -30.31538207 173.37141186 -30.31024551 176.85337067 C-30.30483182 178.80728715 -30.28925845 180.76116717 -30.27340698 182.71502686 C-30.27158065 197.46913171 -32.04453999 210.32632798 -42.4140625 221.48828125 C-50.45535729 228.76158722 -58.83375986 232.6639806 -69.74609375 232.5703125 C-70.40207047 232.5674826 -71.05804718 232.56465271 -71.73390198 232.56173706 C-73.80196409 232.55065984 -75.86957173 232.52558063 -77.9375 232.5 C-79.35090515 232.48995402 -80.76431717 232.48083102 -82.17773438 232.47265625 C-85.61863394 232.45076184 -89.05927252 232.41632051 -92.5 232.375 C-91.89969594 226.95360112 -90.58850043 222.16935998 -88.77734375 217.03515625 C-88.51240616 216.26819931 -88.24746857 215.50124237 -87.97450256 214.71104431 C-87.13474324 212.28443157 -86.2862807 209.86097007 -85.4375 207.4375 C-84.86335241 205.78340429 -84.28977887 204.12910921 -83.71679688 202.47460938 C-82.31782552 198.4390704 -80.9110456 194.40633221 -79.5 190.375 C-77.19 190.375 -74.88 190.375 -72.5 190.375 C-72.5 171.235 -72.5 152.095 -72.5 132.375 C-79.1 132.375 -85.7 132.375 -92.5 132.375 C-91.37488873 123.37410981 -91.37488873 123.37410981 -90.39257812 120.45336914 C-90.06719055 119.46808983 -90.06719055 119.46808983 -89.73522949 118.46290588 C-89.50291626 117.7854985 -89.27060303 117.10809113 -89.03125 116.41015625 C-88.79088013 115.69137802 -88.55051025 114.97259979 -88.30285645 114.23204041 C-87.79870937 112.72926521 -87.29097751 111.22768818 -86.77978516 109.72729492 C-85.99465725 107.42181131 -85.22107788 105.11269024 -84.44921875 102.80273438 C-83.95639074 101.33831886 -83.46292442 99.87411796 -82.96875 98.41015625 C-82.73643677 97.71857925 -82.50412354 97.02700226 -82.26477051 96.31446838 C-80.61668972 91.49168972 -80.61668972 91.49168972 -79.5 90.375 C-77.16702567 90.33407063 -74.83294775 90.33258277 -72.5 90.375 C-72.60997314 89.21677734 -72.71994629 88.05855469 -72.83325195 86.86523438 C-75.58678326 55.15606236 -75.58678326 55.15606236 -70.74511719 46.08837891 C-66.1623568 40.99013246 -60.45162529 37.9035141 -54.36865234 34.87744141 C-49.87640728 32.52465195 -46.00368189 29.46460317 -42 26.375 C-40.45956337 25.24004477 -38.91656017 24.10856534 -37.37109375 22.98046875 C-29.36220629 17.07909633 -21.47630384 11.01324399 -13.58032227 4.9621582 C-12.89381592 4.438396 -12.20730957 3.91463379 -11.5 3.375 C-10.82251709 2.82013916 -10.14503418 2.26527832 -9.44702148 1.69360352 C-6.48188945 -0.31450659 -3.45588448 -0.0717259 0 0 Z M-30.5 42.375 C-30.5 61.845 -30.5 81.315 -30.5 101.375 C-24.05691453 96.28176854 -24.05691453 96.28176854 -21.72949219 93.03808594 C-17.899326 90.18097993 -13.47024609 90.77128646 -8.828125 90.765625 C-7.79057068 90.74908875 -6.75301636 90.73255249 -5.684021 90.71551514 C-2.3726209 90.66696015 0.93831971 90.64564698 4.25 90.625 C6.49611696 90.59684668 8.74221245 90.56692016 10.98828125 90.53515625 C16.49210387 90.46119938 21.99579687 90.4096008 27.5 90.375 C27.53288276 87.16148283 27.55273488 83.94800946 27.5703125 80.734375 C27.57973877 79.82864746 27.58916504 78.92291992 27.59887695 77.98974609 C27.64624865 66.44157831 24.83888873 59.08676453 16.90625 50.6875 C7.58792316 41.89662563 -2.97835572 41.84496923 -15.125 42.125 C-20.19875 42.2075 -25.2725 42.29 -30.5 42.375 Z " fill="#4E6E4D" transform="translate(113.5,40.625)"/>
<path d="M0 0 C5.58725472 8.38088207 4.276822 20.04345452 4.22705078 29.75268555 C4.2264855 31.31093844 4.2268055 32.86919187 4.22793579 34.42744446 C4.22850576 38.6250539 4.21680961 42.82254727 4.20278788 47.02012992 C4.19022068 51.41899754 4.18910532 55.8178683 4.18673706 60.2167511 C4.1805398 68.53207934 4.1641529 76.84735451 4.14403808 85.16265947 C4.12162426 94.63552008 4.1106719 104.10838333 4.10064721 113.5812639 C4.07978498 133.05420593 4.04464337 152.52709869 4 172 C-1.49734921 173.85714582 -6.99663258 175.70840233 -12.49780273 177.55419922 C-14.36944211 178.18311161 -16.2405401 178.81363756 -18.11108398 179.44580078 C-20.79791235 180.35352269 -23.48662629 181.25544777 -26.17578125 182.15625 C-27.01337479 182.44060913 -27.85096832 182.72496826 -28.71394348 183.01794434 C-29.49452621 183.27821411 -30.27510895 183.53848389 -31.0793457 183.80664062 C-31.76551468 184.03758423 -32.45168365 184.26852783 -33.15864563 184.50646973 C-35 185 -35 185 -38 185 C-38.33 147.38 -38.66 109.76 -39 71 C-42.3 74.3 -45.6 77.6 -49 81 C-53.31640687 81.89917086 -56.01668958 82.2007372 -60.2578125 81.9765625 C-61.28687714 81.96241302 -62.31594177 81.94826355 -63.37619019 81.9336853 C-66.6288896 81.87817321 -69.87442268 81.75284253 -73.125 81.625 C-75.34364973 81.57478231 -77.56240864 81.52916497 -79.78125 81.48828125 C-85.18990099 81.37866072 -90.59443871 81.21184904 -96 81 C-95.99555878 81.73756531 -95.99111755 82.47513062 -95.98654175 83.23504639 C-95.94622179 90.23618035 -95.91589324 97.2372731 -95.89637566 104.23849106 C-95.88600369 107.83661665 -95.87196729 111.43464512 -95.84912109 115.03271484 C-95.82715464 118.51460962 -95.81538207 121.99641186 -95.81024551 125.47837067 C-95.80483182 127.43228715 -95.78925845 129.38616717 -95.77340698 131.34002686 C-95.77223359 140.81931364 -95.84822249 151.07550482 -100.4375 159.625 C-100.84871094 160.42164063 -101.25992188 161.21828125 -101.68359375 162.0390625 C-103 164 -103 164 -106 166 C-105.00463446 163.42583061 -103.96558702 160.93081933 -102.73579407 158.45855713 C-98.65664162 149.9246024 -98.26450009 142.00124699 -98.29296875 132.734375 C-98.27982185 131.20450905 -98.26450858 129.67466035 -98.24714661 128.14483643 C-98.20763235 124.15987823 -98.19712815 120.1753775 -98.19311523 116.19024658 C-98.18371968 112.1071616 -98.14626683 108.02433841 -98.11132812 103.94140625 C-98.04709523 95.96093216 -98.01357461 87.98072047 -98 80 C-97.13461861 80.01784798 -97.13461861 80.01784798 -96.25175476 80.03605652 C-90.19932735 80.149887 -84.14990035 80.18531415 -78.09643555 80.17700195 C-75.84335842 80.18394046 -73.59024842 80.2102911 -71.33764648 80.25708008 C-56.87439198 81.11364281 -56.87439198 81.11364281 -44.47871399 74.98176575 C-42.49446832 72.77120252 -40.75515608 70.39384406 -39 68 C-38.34 68 -37.68 68 -37 68 C-37 105.95 -37 143.9 -37 183 C-24.90183529 179.2888861 -24.90183529 179.2888861 -13.2421875 174.9140625 C-10.90899267 173.96289945 -8.56505127 173.08409176 -6.1875 172.25 C-5.50042969 172.00765625 -4.81335938 171.7653125 -4.10546875 171.515625 C-1.68030186 170.92170658 0.51124616 170.96613591 3 171 C2.91605421 150.92860874 2.8209039 130.85730028 2.71247292 110.786026 C2.662385 101.46625402 2.61594165 92.14649067 2.578125 82.82666016 C2.54514863 74.70199794 2.50528627 66.57740342 2.45720994 58.45281601 C2.43200105 54.15228326 2.41020327 49.8517951 2.39665604 45.5512085 C2.38378467 41.49975468 2.36167595 37.44845423 2.33261681 33.39708519 C2.32358059 31.91368459 2.31786008 30.43025933 2.31578636 28.94683266 C2.30372999 21.62951371 2.16606251 15.01187377 0 8 C-0.20992436 5.27938032 -0.09771582 2.736043 0 0 Z " fill="#C7CBC7" transform="translate(179,92)"/>
<path d="M0 0 C1.52158268 3.92829656 0.42185614 6.61906369 -0.87109375 10.515625 C-1.48500977 12.39121094 -1.48500977 12.39121094 -2.11132812 14.3046875 C-2.55316156 15.61986689 -2.99522175 16.93497013 -3.4375 18.25 C-3.87660192 19.58041571 -4.31476394 20.91114202 -4.75195312 22.2421875 C-5.82538061 25.49785767 -6.91149558 28.74933962 -8 32 C-1.73 32 4.54 32 11 32 C11 51.47 11 70.94 11 91 C8.69 91 6.38 91 4 91 C3.84362061 91.54640137 3.68724121 92.09280273 3.52612305 92.65576172 C1.21137572 100.56696423 -1.48082852 108.34176035 -4.1875 116.125 C-4.6557876 117.47649715 -5.12388786 118.82805923 -5.59179688 120.1796875 C-6.72570964 123.45387502 -7.86214171 126.72718124 -9 130 C5.24823099 130.10339152 19.49563834 130.1481951 33.7442503 130.12697029 C40.36158715 130.1187945 46.97781681 130.12888941 53.5949707 130.18164062 C59.98863242 130.23192301 66.38063293 130.23303403 72.77439308 130.20095444 C75.20588589 130.19722138 77.63747272 130.21080246 80.06876183 130.24249649 C97.22843085 130.67022659 97.22843085 130.67022659 111.68074322 122.49644661 C112.82654899 121.36966325 113.92050747 120.19046524 115 119 C115.66 119.33 116.32 119.66 117 120 C110.38861077 127.29880405 104.30763082 131.54582152 94.27576637 132.1776228 C88.48188362 132.30493933 82.70684028 132.21407375 76.9140625 132.07421875 C74.40061874 132.05366901 71.88713052 132.03802672 69.37362671 132.02705383 C63.46914689 131.98956498 57.56702181 131.9031827 51.66350019 131.79220945 C44.27086842 131.65631443 36.8779394 131.5979284 29.484375 131.53710938 C16.32176094 131.41960099 3.16102652 131.23434061 -10 131 C-9.03072684 123.57250977 -9.03072684 123.57250977 -7.78491211 119.99243164 C-7.54473862 119.29223404 -7.30456512 118.59203644 -7.05711365 117.87062073 C-6.79978958 117.14116745 -6.54246552 116.41171417 -6.27734375 115.66015625 C-6.01240616 114.89319931 -5.74746857 114.12624237 -5.47450256 113.33604431 C-4.63474324 110.90943157 -3.7862807 108.48597007 -2.9375 106.0625 C-2.36335241 104.40840429 -1.78977887 102.75410921 -1.21679688 101.09960938 C0.18217448 97.0640704 1.5889544 93.03133221 3 89 C5.31 89 7.62 89 10 89 C10 70.85 10 52.7 10 34 C3.4 34 -3.2 34 -10 34 C-9.30140688 28.41125502 -8.73700048 24.61126897 -6.93359375 19.53125 C-6.3293457 17.81035156 -6.3293457 17.81035156 -5.71289062 16.0546875 C-5.29201172 14.88164062 -4.87113281 13.70859375 -4.4375 12.5 C-4.01275391 11.29601562 -3.58800781 10.09203125 -3.15039062 8.8515625 C-2.10741555 5.89841959 -1.05712481 2.948101 0 0 Z " fill="#BABEBA" transform="translate(215,139)"/>
<path d="M0 0 C5.58725472 8.38088207 4.276822 20.04345452 4.22705078 29.75268555 C4.2264855 31.31093844 4.2268055 32.86919187 4.22793579 34.42744446 C4.22850576 38.6250539 4.21680961 42.82254727 4.20278788 47.02012992 C4.19022068 51.41899754 4.18910532 55.8178683 4.18673706 60.2167511 C4.1805398 68.53207934 4.1641529 76.84735451 4.14403808 85.16265947 C4.12162426 94.63552008 4.1106719 104.10838333 4.10064721 113.5812639 C4.07978498 133.05420593 4.04464337 152.52709869 4 172 C0.58915232 173.20469568 -2.82943733 174.38570092 -6.25 175.5625 C-7.21808594 175.90474609 -8.18617188 176.24699219 -9.18359375 176.59960938 C-10.11816406 176.91865234 -11.05273438 177.23769531 -12.015625 177.56640625 C-12.87446289 177.86490479 -13.73330078 178.16340332 -14.61816406 178.47094727 C-17.16586928 179.03684284 -18.56315454 178.85092276 -21 178 C-16.0995457 175.98457307 -11.18664204 174.00895738 -6.1875 172.25 C-5.50042969 172.00765625 -4.81335938 171.7653125 -4.10546875 171.515625 C-1.68030186 170.92170658 0.51124616 170.96613591 3 171 C2.91605421 150.92860874 2.8209039 130.85730028 2.71247292 110.786026 C2.662385 101.46625402 2.61594165 92.14649067 2.578125 82.82666016 C2.54514863 74.70199794 2.50528627 66.57740342 2.45720994 58.45281601 C2.43200105 54.15228326 2.41020327 49.8517951 2.39665604 45.5512085 C2.38378467 41.49975468 2.36167595 37.44845423 2.33261681 33.39708519 C2.32358059 31.91368459 2.31786008 30.43025933 2.31578636 28.94683266 C2.30372999 21.62951371 2.16606251 15.01187377 0 8 C-0.20992436 5.27938032 -0.09771582 2.736043 0 0 Z " fill="#BFC3BF" transform="translate(179,92)"/>
<path d="M0 0 C0.33 0 0.66 0 1 0 C0.47782461 6.41893654 -0.72048213 11.94633028 -2.875 18 C-3.13152344 18.7425 -3.38804688 19.485 -3.65234375 20.25 C-4.1387066 21.65776382 -4.6288237 23.06424255 -5.12451172 24.46875 C-6.44998874 28.30102713 -7.71768813 32.15306439 -9 36 C-2.73 36 3.54 36 10 36 C10 56.46 10 76.92 10 98 C7.36 98 4.72 98 2 98 C2 97.34 2 96.68 2 96 C4.31 96 6.62 96 9 96 C9 76.86 9 57.72 9 38 C2.4 38 -4.2 38 -11 38 C-10.27412466 32.1929973 -9.54308898 28.02527396 -7.71484375 22.65625 C-7.49429825 22.00168823 -7.27375275 21.34712646 -7.04652405 20.67272949 C-6.35061524 18.61266314 -5.64428242 16.55635774 -4.9375 14.5 C-4.45958784 13.09138267 -3.9823681 11.68253021 -3.50585938 10.2734375 C-2.34521866 6.84620794 -1.17521083 3.42226481 0 0 Z " fill="#ABB2AB" transform="translate(32,135)"/>
<path d="M0 0 C1.52158268 3.92829656 0.42185614 6.61906369 -0.87109375 10.515625 C-1.48500977 12.39121094 -1.48500977 12.39121094 -2.11132812 14.3046875 C-2.55316156 15.61986689 -2.99522175 16.93497013 -3.4375 18.25 C-3.87660192 19.58041571 -4.31476394 20.91114202 -4.75195312 22.2421875 C-5.82538061 25.49785767 -6.91149558 28.74933962 -8 32 C-1.73 32 4.54 32 11 32 C11 51.47 11 70.94 11 91 C8.69 91 6.38 91 4 91 C4 90.67 4 90.34 4 90 C5.98 90 7.96 90 10 90 C10 71.52 10 53.04 10 34 C3.4 34 -3.2 34 -10 34 C-9.30140688 28.41125502 -8.73700048 24.61126897 -6.93359375 19.53125 C-6.3293457 17.81035156 -6.3293457 17.81035156 -5.71289062 16.0546875 C-5.29201172 14.88164062 -4.87113281 13.70859375 -4.4375 12.5 C-4.01275391 11.29601562 -3.58800781 10.09203125 -3.15039062 8.8515625 C-2.10741555 5.89841959 -1.05712481 2.948101 0 0 Z " fill="#ABB2AB" transform="translate(215,139)"/>
<path d="M0 0 C1.17618896 0.00572021 2.35237793 0.01144043 3.56420898 0.01733398 C18.31972241 0.32113901 28.11255912 5.10075451 38.625 15.4375 C39.264375 16.118125 39.90375 16.79875 40.5625 17.5 C40.2325 18.16 39.9025 18.82 39.5625 19.5 C38.97855469 18.84644531 38.97855469 18.84644531 38.3828125 18.1796875 C33.65700169 13.14898567 28.6852282 9.66158733 22.5625 6.5 C21.799375 6.08363281 21.03625 5.66726562 20.25 5.23828125 C11.26429601 1.13423375 -0.7297196 1.13882895 -10.4375 2.5 C-11.0975 3.16 -11.7575 3.82 -12.4375 4.5 C-14.5625 4.125 -14.5625 4.125 -16.4375 3.5 C-11.54750863 -0.86210691 -6.25324812 -0.03446157 0 0 Z " fill="#C8CCC8" transform="translate(303.4375,40.5)"/>
<path d="M0 0 C0.66 0.33 1.32 0.66 2 1 C0.71937515 2.7074998 -0.61767557 4.37373596 -2 6 C-2.66 6 -3.32 6 -4 6 C-4 19.2 -4 32.4 -4 46 C-7.465 46.495 -7.465 46.495 -11 47 C-11.99 47.495 -11.99 47.495 -13 48 C-12.67 47.01 -12.34 46.02 -12 45 C-9.69 45 -7.38 45 -5 45 C-5.03927612 43.16840332 -5.03927612 43.16840332 -5.0793457 41.29980469 C-5.16987564 36.76760191 -5.2272594 32.23547894 -5.2746582 27.70263672 C-5.29979604 25.74123697 -5.33391165 23.77993084 -5.37719727 21.81884766 C-5.43788208 18.99878856 -5.46621641 16.17996806 -5.48828125 13.359375 C-5.51408768 12.48319519 -5.5398941 11.60701538 -5.56648254 10.70428467 C-5.56930051 4.58154885 -5.56930051 4.58154885 -2.46948242 1.41503906 C-1.65455322 0.94807617 -0.83962402 0.48111328 0 0 Z " fill="#A6AAA6" transform="translate(46,86)"/>
<path d="M0 0 C0.69496582 0.01627441 1.38993164 0.03254883 2.10595703 0.04931641 C17.52936403 0.65436403 17.52936403 0.65436403 22.375 5.5 C20.47899631 5.18853528 18.58320413 4.87578283 16.6875 4.5625 C15.63175781 4.38847656 14.57601562 4.21445312 13.48828125 4.03515625 C11.60650498 3.71168906 9.72894636 3.35933513 7.86328125 2.953125 C4.96836277 2.42594989 2.19158067 2.25753764 -0.75 2.1875 C-1.78382812 2.15011719 -2.81765625 2.11273438 -3.8828125 2.07421875 C-6.76399552 2.23073388 -6.76399552 2.23073388 -8.4921875 4.51953125 C-9.05292969 5.49986328 -9.05292969 5.49986328 -9.625 6.5 C-10.945 6.17 -12.265 5.84 -13.625 5.5 C-9.06582281 1.03962851 -6.59932277 -0.15619699 0 0 Z " fill="#BCC2BC" transform="translate(113.625,40.5)"/>
<path d="M0 0 C0.66 0.33 1.32 0.66 2 1 C-1.15743412 5.47303167 -5.106956 9.45791073 -10 12 C-11.32 11.67 -12.64 11.34 -14 11 C-9.38 7.37 -4.76 3.74 0 0 Z " fill="#ABB5AA" transform="translate(74,65)"/>
<path d="M0 0 C0.66 0.33 1.32 0.66 2 1 C-1.15743412 5.47303167 -5.106956 9.45791073 -10 12 C-11.32 11.67 -12.64 11.34 -14 11 C-9.38 7.37 -4.76 3.74 0 0 Z " fill="#AAB4A9" transform="translate(90,53)"/>
<path d="M0 0 C0.88945312 0.00966797 1.77890625 0.01933594 2.6953125 0.02929688 C3.61570312 0.05443359 4.53609375 0.07957031 5.484375 0.10546875 C6.42023438 0.11900391 7.35609375 0.13253906 8.3203125 0.14648438 C10.62558827 0.18176921 12.9296856 0.23106594 15.234375 0.29296875 C15.234375 0.62296875 15.234375 0.95296875 15.234375 1.29296875 C13.32011719 1.36644531 13.32011719 1.36644531 11.3671875 1.44140625 C9.69789428 1.51643066 8.02862454 1.59197863 6.359375 1.66796875 C5.09673828 1.714375 5.09673828 1.714375 3.80859375 1.76171875 C2.60009766 1.81972656 2.60009766 1.81972656 1.3671875 1.87890625 C0.62355957 1.91032715 -0.12006836 1.94174805 -0.88623047 1.97412109 C-3.00573474 2.14716426 -3.00573474 2.14716426 -4.765625 4.29296875 C-6.890625 3.91796875 -6.890625 3.91796875 -8.765625 3.29296875 C-5.76395699 0.68007099 -3.96935189 -0.07633369 0 0 Z " fill="#9EA59D" transform="translate(295.765625,40.70703125)"/>
<path d="M0 0 C2.85818883 2.47989913 4.19893393 5.13646878 5.75 8.5625 C6.19859375 9.53316406 6.6471875 10.50382812 7.109375 11.50390625 C7.40328125 12.32761719 7.6971875 13.15132812 8 14 C7.67 14.66 7.34 15.32 7 16 C5.82268014 14.0898586 4.65848895 12.17162056 3.5 10.25 C2.8503125 9.18265625 2.200625 8.1153125 1.53125 7.015625 C0 4 0 4 0 0 Z " fill="#BDC3BC" transform="translate(171,75)"/>
<path d="M0 0 C4.15153964 3.41019328 6.53086442 7.88055823 8 13 C7.60546875 15.28125 7.60546875 15.28125 7 17 C5.82866942 14.54379149 4.66278278 12.08525083 3.5 9.625 C3.16613281 8.92632812 2.83226562 8.22765625 2.48828125 7.5078125 C0 2.2265625 0 2.2265625 0 0 Z " fill="#C2C7C2" transform="translate(344,60)"/>
<path d="M0 0 C0.66 0.33 1.32 0.66 2 1 C0.71937515 2.7074998 -0.61767557 4.37373596 -2 6 C-2.66 6 -3.32 6 -4 6 C-4 8.64 -4 11.28 -4 14 C-4.33 14 -4.66 14 -5 14 C-5.29036649 10.61884349 -5.44908891 7.37080851 -5 4 C-2.5 1.375 -2.5 1.375 0 0 Z " fill="#B0B6B0" transform="translate(46,86)"/>
<path d="M0 0 C0.66 0.33 1.32 0.66 2 1 C0.8553125 1.86625 0.8553125 1.86625 -0.3125 2.75 C-2.66200917 4.71703093 -4.29323505 6.48476744 -6 9 C-7.32 8.67 -8.64 8.34 -10 8 C-6.7 5.36 -3.4 2.72 0 0 Z " fill="#C4CAC4" transform="translate(58,77)"/>
<path d="M0 0 C1.4540625 0.0309375 1.4540625 0.0309375 2.9375 0.0625 C2.07125 0.43375 2.07125 0.43375 1.1875 0.8125 C-1.3627997 2.22933317 -3.08035701 3.93877537 -5.0625 6.0625 C-3.98897059 0.08140756 -3.98897059 0.08140756 0 0 Z " fill="#788976" transform="translate(38.0625,131.9375)"/>
<path d="M0 0 C0.66 0.33 1.32 0.66 2 1 C0.68 2.65 -0.64 4.3 -2 6 C-3.32 5.67 -4.64 5.34 -6 5 C-4.02 3.35 -2.04 1.7 0 0 Z " fill="#BCC3BB" transform="translate(74,65)"/>
<path d="M0 0 C0.66 0.33 1.32 0.66 2 1 C0.68 2.65 -0.64 4.3 -2 6 C-3.32 5.67 -4.64 5.34 -6 5 C-4.02 3.35 -2.04 1.7 0 0 Z " fill="#BBC2BB" transform="translate(90,53)"/>
<path d="M0 0 C0.66 0.33 1.32 0.66 2 1 C0.68 2.65 -0.64 4.3 -2 6 C-3.32 5.67 -4.64 5.34 -6 5 C-4.02 3.35 -2.04 1.7 0 0 Z " fill="#BBC2BB" transform="translate(98,47)"/>
</svg>
